<svg width="326" height="179" viewBox="0 0 326 179" fill="none" xmlns="http://www.w3.org/2000/svg">
<path fill-rule="evenodd" clip-rule="evenodd" d="M309.189 0.0388753C313.529 -0.290341 317.267 1.50706 320.672 4.07891C323.397 6.13752 325.039 9.62034 325.277 13.0545C325.638 18.3017 324.458 25.533 322.535 30.4402C321.901 32.0616 319.876 34.2754 318.861 35.8846C317.438 38.1393 316.128 40.7149 314.628 42.8797C310.76 48.4612 304.464 55.1612 299.412 59.6609C295.476 62.4271 290.818 63.7303 287.416 67.3445C285.014 69.8922 283.501 73.0675 281.566 75.9793C275.923 84.4735 269.321 92.7802 261.703 99.5926C259.183 101.847 256.788 104.343 253.893 106.101C251.114 107.79 247.635 108.792 244.427 109.248C238.867 109.841 234.446 103.963 230.58 100.755C229.196 101.298 227.347 102.208 226.267 103.415C221.026 109.264 217.553 117.005 214.409 124.128C213.559 125.919 213.435 129.79 211.701 130.983C209.797 132.294 206.487 130.261 205.511 128.555C204.832 127.357 204.616 125.95 204.905 124.602C205.191 123.217 206.318 120.987 206.969 119.589C209.191 114.825 210.242 109.759 212.03 104.867C214.065 99.2952 216.529 93.9264 218.099 88.1736C219.412 83.8129 221.038 76.2007 222.687 72.3641C224.428 72.6363 226.251 72.8683 227.919 73.4139C232.55 78.2696 228.344 82.7027 226.287 87.4393C225.28 89.7616 224.757 91.7894 224.341 94.2732C224.698 93.8967 225.175 93.403 225.605 93.1248C233.839 87.8023 236.366 99.4156 242.657 100.465C245.67 100.967 251.691 98.7686 254.119 96.8074C259.575 92.4023 264.462 87.7394 268.8 82.2186C270.06 80.6147 271.564 79.0768 272.718 77.3846C273.798 75.7996 274.617 73.843 275.633 72.2518C278.073 68.4283 279.748 67.5959 280.437 63.0438C274.572 61.3777 269.038 59.1497 263.63 56.3387C256.175 52.6371 252.703 45.7663 250.405 38.1483C248.44 32.6197 249.845 28.4174 250.838 22.9979C251.033 18.5142 253.748 16.23 255.477 12.7889C259.097 5.58527 266.946 1.89191 274.383 6.03888C278.156 8.14146 283.632 15.2054 284.826 19.574C286.414 15.3512 288.95 13.0348 291.537 9.71954C295.001 5.27618 297.571 3.46551 302.973 1.78985C305.03 1.15179 306.944 0.390326 309.189 0.0388753ZM318.236 18.1063C319.137 10.0705 317.878 6.7044 309.248 7.51837C301.308 8.64829 297.777 13.4641 292.795 19.2986C290.393 22.5591 288.486 26.1162 287.813 30.1385C287.591 31.4683 287.217 33.5161 286.712 34.6199C285.815 36.5897 281.926 35.9158 280.564 34.8543C279.471 34.0223 278.804 32.3579 278.729 31.0252C278.438 25.8578 279.661 21.6081 276.165 17.1873C274.05 14.5128 272.878 12.1482 268.858 12.577C265.448 12.9409 261.83 15.4848 260.282 18.5672C256.823 25.4504 254.783 33.6803 257.602 41.1619C260.44 48.338 263.617 49.5132 270.493 52.5096C272.923 53.5684 275.365 54.5196 278.064 54.7049C283.793 55.0979 286.604 53.3888 292.161 55.8123C301.361 48.7781 308.455 40.5969 313.334 30.1072C315.148 26.2068 317.826 22.6766 318.236 18.1063Z" fill="#0048FF"/>
<path d="M44.748 52.1778C46.5984 52.1709 47.9506 53.4845 49.2944 54.598C51.1796 56.0293 50.7593 59.3288 50.0397 61.3619C45.0979 75.3263 43.1184 90.2682 40.6135 104.817C40.2588 106.877 40.3731 109.945 40.3931 112.115C44.0238 110.997 47.3733 109.192 50.8942 107.787C53.887 106.592 57.0641 105.755 59.9843 104.399C62.9571 103.018 65.6208 101.101 68.7166 99.9522C70.6263 99.2438 77.8867 98.0568 78.8155 97.0008C79.0018 96.7892 79.1957 96.5568 79.4271 96.3934C80.6337 95.5421 82.4947 94.9764 83.8462 94.3361C88.713 92.0305 93.4492 90.1069 98.5995 88.5254C101.738 87.5618 104.948 86.8779 108.056 85.8044C109.951 85.1498 111.874 84.4383 113.673 83.5526C117.023 81.9038 120.12 79.9643 123.669 78.7298C129.16 76.8199 134.828 75.6102 140.344 73.8485C142.283 73.2288 144.158 72.3863 146.073 71.6916C148.409 70.8441 150.835 70.2385 153.198 69.4642C155.34 68.762 157.456 67.8726 159.624 67.2677C161.746 66.6755 164 66.5881 166.141 66.0605C168.616 65.4504 170.958 64.3408 173.413 63.6495C176.463 62.7905 179.629 62.3585 182.677 61.5046C186.471 60.4419 190.872 57.1592 194.918 58.0448C196.675 58.4296 197.68 59.8277 198.582 61.2548C198.637 62.9758 198.522 63.8599 198.3 65.5829C194.933 65.9944 191.492 66.0691 188.152 66.7459C177.047 68.9946 166.544 72.731 155.747 75.9564C124.179 85.2552 93.2771 96.6796 63.2523 110.152C60.5057 111.373 57.2052 112.387 54.3993 113.587C51.8214 114.69 49.2771 115.948 46.7534 117.171C44.405 118.277 41.848 119.408 39.6861 120.8C38.8599 125.485 39.8343 131.957 40.6587 136.569C41.1225 139.631 43.1665 143.649 46.3997 144.493C49.2379 145.233 50.8198 139.459 52.195 137.678C54.656 134.49 57.8593 132.025 60.4154 128.915C61.6359 127.429 63.1846 126.185 65.1483 126.714C68.1054 126.951 71.3952 131.331 69.7893 134.137C67.7464 137.706 62.4727 142.549 59.6767 145.624C55.2906 150.449 52.4386 151.845 51.0667 158.505C47.1796 177.372 64.7031 171.172 72.1947 162.755C73.4028 161.544 76.1695 155.844 77.6709 155.408C82.1467 154.11 81.87 160.63 79.9155 163.286C77.363 166.754 75.7432 169.629 72.6648 172.533C71.2978 173.84 69.7644 174.96 68.1042 175.866C60.2411 180.099 49.5131 178.826 45.0893 170.439C41.7271 164.064 42.897 158.433 44.9174 151.85C42.8972 150.906 41.941 150.211 40.3334 148.701C35.3102 143.981 34.4856 138.927 33.3124 132.492C32.793 129.642 32.1684 127.203 32.0985 124.221C28.9765 125.378 24.8717 127.838 21.8848 129.395C18.8425 130.98 15.8026 132.567 12.7222 134.095C10.3999 135.247 7.98488 136.819 5.52297 137.563C2.50383 136.581 -3.1599 133.391 2.24832 130.78C6.07095 128.693 10.6437 127.662 14.4839 125.726C19.7918 123.051 25.0613 120.157 30.5282 117.729C31.2193 117.423 32.3653 116.674 32.5031 115.911C33.1567 112.294 33.5143 108.605 34.1193 104.973L39.0462 76.34C39.9406 71.0125 41.4691 66.9045 42.6245 61.7153C43.1539 59.3374 42.5629 56.2019 43.1617 53.8085C43.3843 52.9193 43.9979 52.5953 44.748 52.1778Z" fill="#0048FF"/>
<path fill-rule="evenodd" clip-rule="evenodd" d="M190.417 93.6613C194.03 93.5714 197.118 98.6459 195.681 102.091C194.062 105.97 192.05 108.805 190.286 112.305C198.005 120.974 195.496 121.676 185.664 121.909C182.507 125.403 176.902 137.574 174.779 142.323C173.51 145.16 172.473 148.721 170.83 151.65C169.276 151.201 167.708 150.787 166.11 150.529C165.555 141.915 171.842 129.59 175.708 121.709C169.643 121.584 166.42 121.992 160.541 123.819C160.533 126.837 161.18 129.883 161.498 132.886C161.756 135.328 161.74 137.757 161.564 140.203C160.873 140.878 160.219 141.52 159.338 141.946C155.514 143.793 150.145 141.568 147.397 138.687C146.952 138.219 146.525 137.735 146.115 137.237C144.296 134.298 144.197 133.425 144.168 129.996C144.394 122.126 147.191 123.31 151.471 118.257C150.779 114.523 145.931 103.339 147.934 100.525C148.321 99.9807 148.826 99.7548 149.469 99.6633C150.805 99.4733 152.07 99.757 153.144 100.587C156.01 102.802 157.297 111.647 157.723 115.276C164.378 114.215 172.933 114.043 179.438 112.762C182.472 112.164 185.265 104.852 186.214 102.432C187.148 100.335 187.781 93.7276 190.417 93.6613ZM152.706 130.666L152.457 130.817C152.6 131.491 153.286 132.125 153.862 132.491C153.852 132.346 153.83 132.204 153.794 132.068C153.783 132.022 153.77 131.977 153.755 131.933C153.582 131.401 153.214 130.953 152.706 130.666Z" fill="#0048FF"/>
<path d="M114.698 105.268C116.471 105.149 117.814 107.266 118.978 108.502C118.002 109.21 117.039 109.874 116.027 110.524C112.793 112.604 104.977 115.109 103.906 119.366C100.874 131.467 99.9739 145.035 104.214 156.966C105.172 159.665 107.895 162.236 109.29 165.325C99.099 165.513 96.6256 156.732 95.2276 148.346C94.5492 141.852 94.0573 128.083 95.2298 121.819C90.2177 124.375 86.1783 129.152 81.0581 130.556C78.8938 129.843 76.8913 128.2 76.0235 126.048C74.4076 121.688 78.2649 121.69 81.0263 120.32C86.2199 117.743 92.5526 114.909 96.9516 111.097C97.9168 110.261 99.016 107.477 99.5346 106.251C108.655 108.049 106.601 106.332 114.698 105.268Z" fill="#0048FF"/>
<path d="M143.238 133.49C144.554 134.37 144.132 136.493 143.988 137.854C142.415 142.872 128.93 152.397 124.072 153.593C118.445 151.925 114.484 144.166 122.13 143.353C127.693 142.761 132.467 141.163 137.176 137.969C139.299 136.529 141.103 134.812 143.238 133.49Z" fill="#0048FF"/>
<path d="M126.358 122.116C128.477 121.909 133.604 123.018 133.623 126.028C133.644 129.421 126.839 129.765 124.948 131.659C122.768 133.842 121.891 136.945 119.562 139.276C118.35 139.444 117.242 138.941 116.231 138.372C111.373 135.634 111.706 132.022 115.638 128.602C118.635 125.995 122.457 123.069 126.358 122.116Z" fill="#0048FF"/>
</svg>