<svg width="153" height="286" viewBox="0 0 153 286" fill="none" xmlns="http://www.w3.org/2000/svg">
<path d="M91.9395 13.3906C94.4432 13.3132 96.8762 13.6142 99.8301 14.2227C109.763 16.242 117.556 21.2381 123.335 29.6377C126.7 34.529 127.964 40.9094 128 47.0176C128.032 52.5011 127.076 58.058 125.494 62.6621C131.024 69.9858 134.133 76.6959 134.959 86.4199C136.069 99.4828 131.879 109.843 123.215 119.195C122.753 119.694 122.178 120.334 121.543 121.005C123.917 123.41 126.183 126.59 128.049 129.804C130.615 134.222 132.73 139.224 133.359 143.21C133.747 145.161 133.871 147.116 133.934 148.923C133.992 150.596 133.999 152.027 134.076 153.467L134.114 154.085V154.086C134.447 158.886 134.383 163.144 133.416 167.298C132.44 171.487 130.586 175.401 127.559 179.595C123.264 185.545 116.698 191.171 109.967 194.896C116.354 202.349 121.364 213.125 121.413 222.77C121.43 226.147 121.593 229.938 121.233 233.706C119.723 249.54 106.646 264.632 89.7412 265.194L89.7422 265.195C83.6593 265.399 77.4384 263.681 72.1797 261.496L72.1719 261.493C71.2135 261.092 70.1556 260.56 69.2549 260.115C68.6104 259.797 68.0383 259.523 67.5381 259.302C57.5167 260.892 48.4396 260.952 38.9502 254.18V254.181C31.3023 248.796 26.1114 240.588 24.5225 231.37L24.5195 231.355L24.5176 231.341C23.067 222.402 24.2831 216.238 26.4648 208.467C24.135 204.887 22.3777 201.365 21.3867 197.559C20.2798 193.307 20.1708 188.872 21.0742 183.81C22.6012 175.253 26.4048 168.658 32.6895 163.308C31.9897 162.604 31.3584 161.941 30.9385 161.509V161.508C23.8448 154.206 18.4234 144.389 16.9668 134.022C14.9306 119.531 19.3608 104.88 27.9883 93.377C28.9055 92.1541 29.8222 91.0424 30.6992 89.9912C31.0615 89.557 31.4139 89.1355 31.7607 88.7178C25.8311 80.9583 22.6727 72.9734 23.7139 62.3584C24.5836 53.4921 29.1305 43.6255 36.3184 37.7979C45.1286 30.655 53.7585 30.304 63.2646 30.4482C64.6113 28.6167 66.1043 26.5162 67.8555 24.6748C72.4388 19.8557 77.3126 16.4052 84.0605 14.6611L84.0781 14.6572C87.0144 13.9169 89.4426 13.4679 91.9395 13.3906Z" fill="#BA0E0C" stroke="white" stroke-width="6"/>
<path d="M84.8125 17.5661C90.4953 16.1333 93.578 15.996 99.2341 17.1618C95.9255 17.1558 92.7555 16.7521 89.4067 17.1384C88.8129 17.2069 85.1597 17.6351 84.8125 17.5661Z" fill="#BA0E0C"/>
<path d="M60.4899 213.213C61.6633 213.005 65.6306 212.212 66.499 212.906C68.1235 214.208 69.6139 219.79 71.5192 220.356C72.6891 220.229 73.4287 216.867 73.8598 215.771C75.8754 210.641 80.4973 207.528 85.8388 206.752C93.7643 205.602 100.504 210.041 104.791 216.425C102.622 219.857 101.894 220.896 98.5914 223.189C96.6229 220.757 95.03 218.463 92.016 217.293C87.7566 215.642 84.8698 216.772 82.2096 220.288C84.1014 221.514 86.2325 222.675 88.3598 223.597C95.1812 226.554 103.325 229.747 102.414 238.689C101.772 243.548 99.3882 245.55 94.8773 246.584C87.765 248.213 82.2477 246.106 77.8999 240.236C75.8074 237.608 74.8562 234.177 72.638 231.689C72.5086 231.544 71.944 231.483 71.748 231.547C68.8055 232.505 68.9104 239.441 68.8477 241.857C65.6538 242.241 63.0434 242.467 59.7785 242.259C59.7274 239.979 59.9079 233.322 59.3928 231.634C58.2719 230.666 56.6184 229.904 55.3825 228.971C54.9574 228.65 54.812 228.955 54.1899 228.266C53.9678 227.654 54.0681 222.372 54.0778 221.438C56.7416 221.572 58.0554 221.567 60.5784 220.719C61.206 218.232 60.753 215.766 60.4899 213.213Z" fill="#EBEAEA"/>
<path d="M54.1875 228.27C56.0431 228.574 58.6197 229.844 59.3904 231.637C58.2695 230.669 56.6161 229.907 55.3801 228.975C54.955 228.654 54.8097 228.958 54.1875 228.27Z" fill="#BA0E0C"/>
<path d="M84.2904 231.531C85.462 231.579 86.1578 231.851 87.0976 232.543C88.2841 233.415 90.7362 234.93 89.3946 236.543C85.7009 238.099 83.5345 234.783 84.2904 231.531Z" fill="#BA0E0C"/>
<path d="M38.1773 90.2109C40.804 90.451 43.8462 90.9659 46.5037 91.3305C46.6963 93.9868 46.9089 96.6416 47.1416 99.2947C49.3574 98.3812 52.2021 96.6316 54.3483 95.3981C55.6105 96.7166 58.0567 98.6437 59.5766 100.052C59.4177 100.322 59.2789 100.603 59.1613 100.893C57.8703 104.029 56.8941 108.911 58.1761 112.243C58.6544 113.486 59.7022 113.883 60.8814 113.202C65.7699 110.379 66.7372 105.357 68.3587 100.402C70.2704 101.6 74.1129 102.77 76.8969 104.379C76.5231 111.798 74.0412 117.005 67.6455 120.912C64.5243 122.542 60.1016 124.013 56.8037 121.997C53.2805 119.843 51.7588 114.684 50.8037 110.896C50.6214 110.173 50.4004 109.211 49.7267 108.822C49.486 108.785 49.3462 108.811 49.1342 108.882C43.7542 110.666 48.6472 122.038 47.2919 125.794C46.9835 126.649 43.5346 127.289 42.4268 127.551C41.874 125.369 41.1157 122.961 40.3727 120.864C38.704 116.153 37.3753 116.891 33.75 115.179C32.7564 113.477 32.3279 111.182 31.8828 109.243C33.7995 107.814 35.6627 106.522 37.1964 104.676C37.3421 99.3971 37.8214 95.363 38.1773 90.2109Z" fill="#EBEAEA"/>
<path d="M62.6294 57.1634C62.7999 57.1441 62.9708 57.1286 63.142 57.1166C67.9154 56.8115 72.6188 56.8133 76.294 60.1931C78.6222 62.3339 80.5304 65.963 80.6326 69.0967C80.9199 75.3526 74.7918 76.4593 71.2688 80.0844C67.6388 83.8196 72.887 87.6767 75.584 90.0231C73.8683 92.5943 72.1499 96.5549 70.3456 98.6038C64.1119 96.792 58.5683 92.3778 53.398 88.6175C49.8654 86.1257 45.1917 82.7452 41.7969 80.0659C42.2285 77.4479 42.9353 76.4245 44.2737 74.1754C47.924 76.537 54.1262 79.0907 57.6987 81.4477C58.7481 72.5214 65.941 73.0543 67.9829 67.9299C68.2381 67.2893 68.3563 66.5432 68.0588 65.895C67.6733 65.055 66.7221 64.5144 65.8856 64.2243C63.8054 63.5027 59.1392 64.6798 57.1413 65.6225C55.8914 63.4611 55.1645 61.5314 54.4186 59.1673C56.8187 58.0004 59.9997 57.4222 62.6294 57.1634Z" fill="#EBEAEA"/>
<path d="M97.137 66.918C100.702 67.365 102.231 67.3191 105.928 68.3725C117.085 71.5512 121.786 90.4011 110.206 95.9163C103.278 99.2161 94.4265 96.2397 87.3695 93.6023C84.7173 92.4917 82.5229 91.6808 80.625 89.4767C81.5157 86.499 82.5366 85.1664 84.5373 82.7947C86.3144 84.4263 95.8658 88.5457 98.4346 89.126C103.203 90.2034 108.65 83.5173 104.48 78.8693C101.704 75.7748 99.4132 75.6925 95.4262 75.1035C95.8207 72.0356 96.2506 69.8631 97.137 66.918Z" fill="#EBEAEA"/>
<path d="M64.1096 139.406C69.2622 139.63 74.2989 139.749 78.0383 143.74C82.0456 148.018 81.4204 154.416 77.0233 158.061C70.0491 163.845 58.4975 165.356 49.7801 165.886C49.1817 166.417 46.7093 166.439 45.9696 166.246C45.4376 165.546 45.6954 160.977 46.0256 160.076L46.0471 157.805C51.8279 157.364 59.5225 156.675 64.886 154.437C76.2497 149.694 62.4822 146.35 62.2975 146.076C62.4804 144.771 63.675 140.781 64.1096 139.406Z" fill="#EBEAEA"/>
<path d="M49.7801 165.885C49.1817 166.415 46.7093 166.438 45.9696 166.245C45.4376 165.544 45.6954 160.975 46.0256 160.074C46.0277 162.02 45.9935 164.102 46.0474 166.036C47.2427 165.997 48.6016 165.982 49.7801 165.885Z" fill="#BA0E0C"/>
<path d="M92.1955 121.706C93.4623 121.174 95.459 120.703 96.8277 120.363L96.8557 120.645C96.4278 120.82 95.9848 120.926 95.5385 121.052C96.302 121.451 96.7257 121.691 97.5815 121.574L97.619 121.75C98.2319 121.998 98.4553 121.997 98.741 122.705C99.4092 124.362 99.6635 126.283 100.059 128.027C101.189 127.75 103.294 127.165 104.373 127.01C107.028 131.81 107.94 134.385 101.937 136.42C101.859 139.008 102.273 141.797 102.137 144.333C102.031 146.308 98.9635 147.586 97.2359 148.131C96.4801 145.478 96.2307 141.522 95.716 138.655C94.8107 138.841 93.7394 139.034 92.8568 139.259C92.9924 141.061 93.5786 146.751 93.3339 148.154C93.1994 148.946 92.8551 149.686 92.3368 150.3C90.962 151.923 89.3772 151.963 87.4432 151.967C87.3283 150.201 86.7034 142.399 85.5217 141.585C84.6515 141.74 82.0207 142.379 81.2437 142.721C80.4554 140.299 79.6296 138.2 79.6172 135.629C81.2288 134.958 82.8306 134.264 84.4225 133.548C83.8014 132.453 82.7719 128.987 82.5125 127.626C83.3962 126.753 84.0939 126.263 85.2417 125.795C90.3796 123.698 90.3456 127.301 91.0787 131.255L93.9597 130.461C93.6771 129.297 92.1868 124.148 92.7277 123.469C92.3038 122.736 92.2711 122.562 92.1955 121.706Z" fill="#EBEAEA"/>
<path d="M92.1953 121.706C93.4622 121.174 95.4588 120.703 96.8276 120.363L96.8555 120.645C96.4276 120.82 95.9846 120.926 95.5383 121.052C96.3018 121.451 96.7255 121.691 97.5814 121.574L97.6189 121.75C95.3184 121.851 94.6161 122.068 92.7275 123.469C92.3036 122.736 92.2709 122.562 92.1953 121.706Z" fill="#BA0E0C"/>
<path d="M86.7572 181.597C87.9285 181.388 92.3822 181.518 93.639 181.548C93.6922 182.987 93.832 184.995 93.7135 186.384C92.4474 201.232 67.6219 201.383 56.9013 200.694C55.0889 200.64 53.0107 200.446 51.1576 200.349C50.0731 196.319 49.7191 195.059 50.7765 191.051C59.1715 191.717 67.1461 192.942 75.5312 190.967C81.5307 189.555 84.1371 188.372 84.99 181.809C85.5066 181.718 86.2214 181.66 86.7572 181.597Z" fill="#EBEAEA"/>
<path d="M109.44 118.125C110.688 119.118 112.374 120.463 113.361 121.833C117.977 128.247 119.017 139.164 118.322 146.834C118.058 149.754 116.464 153.222 114.085 154.9C110.727 157.265 107.51 157.105 103.692 156.542C102.255 156.196 101.373 155.847 100.016 155.274C100.045 151.84 101.426 149.53 103.248 146.79C104.675 148.506 105.609 148.233 107.625 147.253C109.03 146.57 109.989 144.868 110.344 143.362C111.35 139.084 110.425 134.335 108.73 130.347C108.026 128.75 106.565 126.396 105.629 124.82C106.23 122.24 107.865 120.166 109.44 118.125Z" fill="#EBEAEA"/>
<path d="M102.427 41.6484C103.484 42.0181 105.274 42.3195 106.424 42.5472C106.357 43.8988 105.495 48.3526 107.563 48.4962C110.002 48.6655 113.58 45.4594 115.542 43.9942C117.333 45.5985 118.321 46.4901 119.812 48.4099C118.827 49.5756 117.083 50.9995 115.891 52.2948C117.588 56.928 119.332 60.4461 116.833 65.1383C115.538 66.815 114.309 67.6229 112.164 67.9178C103.543 69.1031 103.449 60.9772 102.737 55.0412C100.965 54.1182 97.8373 52.9616 95.9361 52.3761C95.8884 50.8219 96.1147 49.2263 96.333 47.6912C97.2535 47.2344 99.6239 46.9373 100.737 46.7618C101.274 45.0646 101.801 43.3111 102.427 41.6484Z" fill="#EBEAEA"/>
<path d="M110.333 57.9641C110.95 57.9608 110.95 57.8658 111.409 58.1365C111.857 58.8915 112.006 60.1751 111.425 60.8701C109.305 61.1468 109.791 59.307 110.333 57.9641Z" fill="#BA0E0C"/>
<path d="M92.1935 121.708C90.8304 118.392 89.5357 108.473 90.6659 105.418C95.5156 92.3136 106.701 100.814 111.115 108.31C109.781 110.249 107.938 112.212 106.511 114.173C105.625 112.803 104.59 111.493 103.589 110.299C97.8018 103.397 96.2667 107.962 97.8466 114.271C98.2408 115.846 98.7892 117.962 99.207 119.585C98.3742 119.836 97.6437 120.061 96.8258 120.364C95.457 120.704 93.4604 121.176 92.1935 121.708Z" fill="#EBEAEA"/>
<path d="M75.8442 162.874C76.0942 162.85 76.1834 162.893 76.4323 162.944C79.8169 165.471 83.0308 174.102 82.8637 178.325C82.7487 181.234 82.9223 184.387 79.9461 186.067C77.9992 187.166 75.9838 186.737 74.0127 186.214C72.7133 185.661 71.3597 184.984 70.0796 184.37C70.5779 180.484 70.4676 179.369 73.5706 176.799C72.8942 172.197 71.565 170.035 69.5234 165.976C71.3708 164.145 73.3979 163.524 75.8442 162.874Z" fill="#EBEAEA"/>
<path d="M56.2518 167.688C59.0811 167.72 61.3632 168.6 63.9173 169.791C63.7107 171.524 63.3119 173.421 62.5669 174.997C61.8983 175.355 60.721 175.926 60.6103 176.697C60.2096 179.488 63.2281 184.437 64.5088 186.826C63.5423 187.364 62.563 187.803 61.5603 188.266C60.1412 188.873 58.9569 189.263 57.4771 189.672C53.4269 185.547 48.6261 176.406 51.9814 170.317C52.797 168.836 54.6232 168.03 56.2518 167.688Z" fill="#EBEAEA"/>
<path d="M65.5296 123.742L65.7685 123.793C66.7523 124.701 68.4648 131 68.9224 132.651C65.4447 134.024 61.9133 135.256 58.3365 136.345C54.3971 137.564 51.28 137.947 48.2712 140.997C47.448 139.819 45.1397 135.301 44.6406 133.942C48.1536 130.432 60.6113 125.087 65.5296 123.742Z" fill="#EBEAEA"/>
<path d="M71.537 202.43C76.6875 202.72 79.9966 204.692 76.3034 209.755C75.2229 211.238 74.1433 212.711 73.0127 214.172L72.1259 215.367C70.611 213.863 69.3553 212.705 67.6406 211.439C70.1893 208.608 69.999 205.53 71.537 202.43Z" fill="#EBEAEA"/>
<path d="M115.32 30.1606L115.651 30.1523C117.471 31.1186 120.175 35.4434 119.853 37.6213C119.186 42.1356 116.525 41.8131 112.983 41.3854C111.983 41.2861 110.832 41.2843 110.108 40.585C109.773 40.2635 109.582 39.8206 109.578 39.3565C109.573 38.7251 109.874 38.2382 110.295 37.7952C111.077 36.9709 111.625 37.0705 112.684 37.0502C113.647 33.7798 115.19 35.0899 112.909 32.0816C113.834 31.2077 114.265 30.8785 115.32 30.1606Z" fill="#EBEAEA"/>
</svg>
