<svg width="201" height="218" viewBox="0 0 201 218" fill="none" xmlns="http://www.w3.org/2000/svg">
<path d="M92.2764 34.1137C96.6164 28.1133 99.1114 20.7615 103.916 15.0283C104.962 13.7797 106.068 12.0708 107.418 11.0271C108.558 10.2708 111.966 8.80668 113.307 8.62832C116.237 8.27427 119.096 9.29955 121.464 11.0011C123.518 12.3906 124.501 14.8044 125.941 16.707C129.962 22.0091 132.934 27.9962 136.342 33.6905C136.788 34.4374 136.92 36.4668 137.361 37.3389C138.796 40.1765 139.95 43.2812 141.298 46.1227C150.429 37.9229 154.281 37.5505 166.38 38.1031C173.007 38.1673 176.695 40.7414 180.914 45.6955C184.351 49.7316 186.051 56.8618 185.541 62.1457C185.077 66.9609 181.35 70.4637 177.599 73.1448C179.291 76.4839 178.624 78.6623 178.757 82.169C178.971 87.8215 178.742 92.5219 177.729 98.0798C176.895 102.659 176.586 105.711 173.947 109.801C170.891 115.818 167.822 120.526 162.5 124.792C167.675 124.538 171.294 124.649 175.536 128.207C177.801 130.107 177.647 132.162 178.762 134.65C179.249 135.735 181.744 137.64 182.116 138.247C182.896 139.517 185.005 143.677 185.022 145.186C185.039 146.831 183.862 149.344 183.322 151.005C188.716 155.51 191.777 157.977 192.348 165.485C192.776 171.116 192.339 176.357 188.645 180.765C182.622 187.953 175.311 189.831 167.13 193.177C166.329 193.504 165.482 194.032 164.63 194.295C159.089 195.756 153.28 196.715 147.599 197.455C143.314 197.789 136.711 197.489 132.364 197.306C127.302 197.094 120.69 192.726 115.865 194.843C112.79 196.193 110.491 200.949 106.87 202.178C104.686 202.92 102.084 204.17 99.7366 204.661C98.4416 204.932 98.7946 203.442 97.8983 204.455C97.3218 205.107 97.1516 205.627 96.2986 205.888L96.1871 205.923C92.7133 206.973 88.9301 205.332 84.596 207.172C79.5561 209.311 72.1949 209.739 66.8409 211.343C63.9594 212.136 57.2396 210.071 55.5083 209.142C50.3265 206.363 47.2184 198.262 48.9988 192.85C48.9786 192.911 45.8625 187.537 45.2612 186.426L45.1776 186.366C40.8964 183.318 36.4426 183.714 31.7897 179.452C25.7366 173.908 23.1681 168.468 21.566 160.42C21.1189 157.856 20.8794 147.032 21.0621 143.947C20.4537 143.776 18.1801 143.082 17.7408 143.019C13.9701 142.524 9.38246 141.804 7.28346 138.168C5.67085 135.269 5.69426 130.972 6.38071 127.821C7.01042 124.931 11.3103 121.424 13.6604 119.87C15.9907 118.33 24.1217 117.983 26.4762 118.823C27.5142 119.09 28.5549 119.345 29.5982 119.589C30.8279 119.784 30.9533 119.778 31.9536 120.426C33.8378 121.935 38.9347 127.395 41.0858 128.217L41.3392 128.074L41.1139 127.239C41.3671 126.089 44.2794 122.93 45.3164 122.245C42.9022 120.418 39.1525 118.522 37.6058 116.368C35.6666 117.347 32.2591 118.11 30.6493 119.034L29.4433 118.964C28.1702 118.771 27.735 118.68 26.5035 118.267C23.0372 115.982 21.271 110.638 24.8028 107.393L24.7485 107.14C22.4638 106.926 22.4954 106.866 21.0388 105.127C16.6498 99.8874 19.7093 94.1685 25.9635 93.0269C26.5902 92.9125 27.0427 92.9113 27.2918 92.3803C26.4212 87.8052 27.2068 82.5657 27.0494 77.9535C26.7991 75.5338 25.8791 73.2588 25.4629 70.8675C25.1293 68.9505 25.2663 66.8094 24.983 64.9542C24.2933 60.439 23.7747 56.1593 23.8724 51.5797C23.8938 50.5806 23.4522 49.2961 23.442 48.2685C23.8577 44.9304 24.3019 41.578 24.9408 38.2729C25.2329 36.7609 25.1084 34.7829 25.5613 33.3403C26.5557 30.1294 28.9483 25.7284 32.6159 25.232C34.5366 24.9721 38.1668 24.8761 40.078 25.5553C48.0645 28.3936 55.6133 33.4255 62.7763 37.9356C63.7428 38.5443 64.8888 39.5819 66.008 40.0073C66.9604 40.1482 69.3746 39.0307 70.3929 38.8197C75.5856 37.0767 80.5793 36.0962 85.9861 35.2852C88.2476 34.946 89.719 34.1092 92.2764 34.1137ZM128.397 164.618C129.095 164.684 130.374 164.665 130.972 164.264L130.614 164.438L130.678 163.842C130.236 163.761 129.823 163.892 129.374 163.985C129.038 164.574 129.203 164.394 128.397 164.618Z" fill="#FBFCF8"/>
<path d="M96.2804 39.2946L96.3314 39.2267C99.085 35.5115 110.008 8.08935 117.019 14.5792C123.747 20.8079 131.256 35.2432 134.624 44.1168C136.966 50.287 138.624 55.861 141.745 62.3313C142.742 61.6001 142.63 61.3905 142.727 60.1876C142.517 55.2576 142.952 52.7614 146.246 48.8769C152.471 41.5347 168.105 40.5831 175.113 47.1118C178.159 49.9188 179.938 53.84 180.044 57.9807C180.274 65.1567 177.295 65.954 172.547 70.1517C172.598 74.5591 173.722 79.3001 173.748 83.6071C173.782 89.2545 172.985 97.6981 171.105 103.006C168.058 111.611 161.107 120.799 152.7 124.526C155.635 126.024 157.749 126.931 158.94 130.217C162.922 129.43 167.29 129.591 170.951 131.698C173.76 133.314 173.267 137.227 174.595 138.966C175.572 140.245 178.497 140.467 178.968 143.46C179.426 146.374 178.271 149.903 177.266 152.601C181.355 156.798 184.773 157.665 186.718 163.789C189.554 172.227 185.239 178.344 178.238 182.596C173.406 185.53 170.149 186.608 165.112 188.067C151.443 192.026 135.697 195.538 122.473 188.471C120.191 187.251 112.842 189.126 111.34 191.292C108.921 193.913 106.535 196.441 103.184 197.851C99.879 199.123 94.6801 200.597 91.1604 200.652C85.8742 200.548 81.5242 202.432 76.5275 203.702C73.3849 204.503 69.5456 205.728 66.3385 206.079C56.1411 207.196 52.2924 200.966 55.3861 191.845C53.0193 188.935 50.0432 184.572 49.2215 180.844C42.4627 179.726 35.8668 177.541 31.7663 171.718C26.9093 164.82 26.5576 156.985 26.947 148.922C27.0485 146.819 26.9572 143.517 25.9824 141.684C22.7203 135.573 9.06891 140.779 11.1043 130.875C11.562 128.648 13.1224 126.863 14.9825 125.619C21.2717 121.413 30.9868 124.575 35.0649 130.517C37.1032 133.486 38.7703 139.441 39.1746 143.084C39.5009 151.752 37.1366 163.767 47.819 167.696C49.9829 165.731 50.4805 162.081 51.646 159.266C42.2489 156.813 39.8245 147.023 42.2305 138.682C44.3033 131.496 48.0477 125.921 53.1708 120.639C48.4143 118.22 43.1124 114.567 39.6669 110.525C37.8652 111.188 29.8919 114.142 28.5458 112.966C28.3717 112.305 28.3497 112.569 28.6023 111.966C30.2119 110.64 35.2057 108.779 37.6502 107.374L34.4366 101.088C31.9145 101.17 25.6809 102.013 23.9473 100.793L23.8397 100.419C24.7898 98.7229 31.1384 97.9668 33.064 97.753C32.616 94.1262 32.3677 90.4776 32.3202 86.8235C32.3065 83.8507 32.5391 80.807 32.3069 77.8466C32.0213 74.2034 30.9538 70.6506 30.5087 67.023C29.3835 57.8565 29.1046 48.9891 30.1277 39.8079C30.4247 37.1421 30.6698 33.5104 32.4054 31.3484C32.9542 30.6648 33.6438 30.1978 34.5285 30.1067C41.5978 29.3801 58.9767 42.5112 65.4571 46.1033C71.6734 44.3235 76.3107 42.4816 82.8197 41.2557C86.9141 40.4847 92.8455 40.172 96.2804 39.2946ZM128.398 164.619C129.097 164.685 130.376 164.666 130.974 164.265L130.615 164.439L130.679 163.843C130.238 163.762 129.825 163.893 129.376 163.986C129.04 164.575 129.205 164.395 128.398 164.619Z" fill="#24221D"/>
<path d="M143.432 63.7344C144.085 65.9538 146.806 73.9008 146.246 75.5808L146.316 75.4173L145.604 75.612C144.393 74.3224 142.97 66.3798 142.32 64.0094L142.771 64.2432L143.432 63.7344Z" fill="#FBFCF8"/>
<path d="M142.724 60.1875C142.91 61.345 143.07 62.6297 143.43 63.7358L142.769 64.2446L142.318 64.0108L141.742 62.3312C142.739 61.6 142.627 61.3904 142.724 60.1875Z" fill="#FBFCF8"/>
<path d="M83.1067 145.996C90.0746 146.241 97.436 150.302 102.122 155.322C110.515 164.312 118.688 180.399 107.964 190.756C97.5679 200.797 81.7303 193.308 73.6118 184.159C68.4973 178.395 66.0204 173.426 65.3838 165.766C65.3716 164.261 65.4735 163.433 65.6733 161.933L66.2779 159.386C70.8126 157.629 74.9943 155.768 78.6871 152.482C80.8264 150.578 81.8393 148.497 83.1067 145.996Z" fill="#F0BD46"/>
<path d="M81.4937 173.234C82.785 173.406 84.2792 173.977 85.572 173.921C86.4505 173.884 86.4969 172.676 87.0749 172.09C88.5128 170.632 96.4277 165.748 98.2734 165.855C100.162 165.964 105.438 175.381 107.175 177.34C104.081 180.271 98.8225 183.699 94.8193 185.178C92.8531 183.699 90.4329 179.711 88.84 177.516C87.2901 175.66 86.1708 176.795 84.2077 177.64C85.0681 178.803 90.3349 186.409 90.3218 187.398C89.9688 188.141 89.0861 188.647 88.394 189.136C86.3571 187.435 82.4025 181.489 81.0746 179.089C80.5829 180.023 79.0848 182.211 78.0144 182.366C74.8768 181.301 78.2549 173.031 78.8803 170.313C76.9969 170.982 73.6868 173.263 72.1362 172.907C71.7768 172.828 71.4711 172.593 71.3031 172.265C69.9984 169.71 76.5615 166.851 78.3664 165.87C78.9992 165.839 79.6238 165.743 80.1016 166.194C81.4552 167.47 81.3806 171.379 81.4937 173.234Z" fill="#24221D"/>
<path d="M94.5608 177.507C94.835 177.487 95.1096 177.472 95.3843 177.463C97.6956 177.39 98.0687 179.619 96.5229 181.116C93.9674 181.404 93.1864 178.732 94.5608 177.507Z" fill="#F0BD46"/>
<path d="M95.9508 169.982C98.5685 169.085 99.7934 171.295 98.7336 172.545C96.2017 173.774 94.8078 172.623 95.9508 169.982Z" fill="#F0BD46"/>
<path d="M95.9453 169.982C98.563 169.085 99.7879 171.295 98.7281 172.545C98.8826 172.795 96.1347 170.176 95.9453 169.982Z" fill="#F0BD46"/>
<path d="M91.3147 172.94L91.4762 172.913C92.7395 172.714 93.444 173.531 94.5293 174.339C94.0119 174.843 93.3084 175.418 92.7513 175.9C92.5951 176.138 92.4288 176.168 92.1622 176.276C91.0477 175.826 90.4216 175.143 90.3281 173.935C90.6279 173.241 90.5874 173.423 91.3147 172.94Z" fill="#F0BD46"/>
<path d="M100.279 174.203C101.252 174.674 102.43 175.778 102.412 176.929C101.849 177.506 101.84 177.37 100.969 177.639C99.5435 177.571 99.3413 177.064 98.4609 176.047C99.3356 175.332 99.5745 175.087 100.279 174.203Z" fill="#F0BD46"/>
<path d="M91.1147 158.77C92.8652 158.893 94.7676 162.161 95.8099 163.557C93.9242 165.66 88.2255 169.049 85.6449 170.157L85.0044 170.103C83.9751 169.568 81.6608 165.949 80.7812 164.728C83.2753 162.653 88.1058 160.223 91.1147 158.77Z" fill="#24221D"/>
<path d="M89.3302 162.32C90.4524 162.312 90.8905 163.112 91.5102 163.917C90.0728 165.157 88.9237 165.773 87.2613 166.654C86.5264 166.675 86.0159 166.628 85.397 166.241C84.7273 164.74 88.2249 162.974 89.3302 162.32Z" fill="#F0BD46"/>
<path d="M87.5218 153.891C88.1368 154.023 89.0105 154.642 89.3991 155.2C89.7682 157.041 87.3405 158.118 85.9615 158.936C83.7495 160.248 81.4196 161.612 79.0086 162.508C77.7733 162.614 76.9277 161.616 77.0606 160.454C77.8083 159.094 85.7103 154.706 87.5218 153.891Z" fill="#24221D"/>
<path d="M71.5968 162.393L71.8004 162.379C73.9617 162.239 78.2736 163.362 75.3514 165.825C74.0004 165.959 72.7443 165.742 71.3997 165.571C71.2671 164.813 70.8227 163.244 71.0315 162.641L71.5968 162.393Z" fill="#24221D"/>
<path d="M126.045 169.862C127.517 169.157 127.636 170.084 129.403 170.131C132.019 170.2 135.634 169.185 138.077 169.751C139.003 169.966 140.915 171.892 141.908 172.348C143.019 172.858 144.321 172.603 145.109 173.438C145.444 176.381 143.496 179.918 149.227 179.564C152.674 179.351 151.95 171.818 153.206 169.822C158.999 166.259 163.228 180.375 168.644 173.478C170.479 171.169 165.306 168.56 165.418 166.888C166.141 166.044 166.802 165.445 167.504 164.65C168.141 163.929 168.959 162.282 169.716 161.683C171.351 160.388 173.56 159.423 175.227 158.211C175.588 157.948 176.908 156.212 177.374 155.699C177.739 155.764 177.673 155.686 177.956 155.904C182.437 159.358 185.371 162.276 185.334 168.322C185.312 171.804 184.362 174.625 181.765 177.212C180.081 179.102 173.314 183.313 171.218 183.555L171.135 183.31C159.555 187.458 141.43 192.183 129.189 189.127C126.102 188.357 123.103 186.035 121.602 183.214C118.903 178.141 120.239 173.849 121.697 168.76C123.075 169.258 124.61 169.587 126.045 169.862Z" fill="#CA3633"/>
<path d="M126.039 169.862C127.511 169.157 127.63 170.084 129.397 170.131C132.013 170.2 135.628 169.185 138.071 169.751C138.997 169.966 140.909 171.892 141.902 172.348C143.013 172.858 144.315 172.603 145.103 173.438C145.438 176.381 143.49 179.918 149.221 179.564C152.668 179.351 151.944 171.818 153.2 169.822C158.993 166.259 163.222 180.375 168.638 173.478C170.473 171.169 165.3 168.56 165.412 166.888C166.135 166.044 166.796 165.445 167.498 164.65C168.135 163.929 168.953 162.282 169.71 161.683C171.345 160.388 173.554 159.423 175.221 158.211C175.582 157.948 176.902 156.212 177.368 155.699C177.733 155.764 177.667 155.686 177.95 155.904C182.431 159.358 185.365 162.276 185.328 168.322C185.306 171.804 184.356 174.625 181.759 177.212C180.075 179.102 173.308 183.313 171.212 183.555L171.129 183.31C177.52 180.503 185.216 176.504 185.036 168.369C184.879 161.298 182.025 160.303 177.631 156.104C174.871 159.534 173.059 159.481 170.023 162.016C168.328 163.431 167.933 165.264 165.434 167.157C167.725 169.018 171.162 172.3 167.87 174.79C163.162 178.568 159.82 170.19 155.56 169.619C151.395 169.061 153.396 177.432 150.788 179.208C149.978 179.759 148.256 180.304 147.33 180.013C144.188 179.028 144.351 176.096 144.934 173.497C141.106 172.475 140.893 172.198 137.662 169.78C134.395 169.874 132.363 170.469 128.606 170.414C128.522 171.655 128.446 173.39 127.733 174.435C127.134 173.622 127.695 171.295 127.475 170.379C127.432 170.202 126.34 169.95 126.039 169.862Z" fill="#24221D"/>
<path d="M55.1033 77.2311C56.397 76.7612 69.4186 79.9206 71.4593 80.4337C71.9549 84.24 72.3535 87.8054 75.1509 90.7421C75.8489 91.475 76.5506 92.1312 77.5864 92.15C80.4742 91.275 79.1175 83.7707 78.8034 81.4279C80.3213 81.6602 87.206 82.4659 88.5454 83.5439C89.1386 84.0213 88.2245 87.4065 87.9444 88.4631C87.7732 88.875 87.5987 89.2854 87.4209 89.6945C86.0592 92.7693 82.3637 96.4042 79.1186 97.5068C69.3851 100.774 58.5525 97.0463 54.5238 87.2326C53.7636 85.3802 52.8094 79.4203 53.5653 77.7852C54.1432 77.2448 54.1782 77.3922 55.1033 77.2311Z" fill="#FBFCF8"/>
<path d="M149.078 149.202C151.105 149.495 153.266 150.191 155.458 150.337C160.983 150.591 167.507 149.03 171.875 145.526C173.35 144.343 174.244 141.697 176.071 141.88C177.507 142.662 177.564 145.654 177.168 146.985C175.707 151.895 171.152 154.638 166.268 155.191C164.569 155.383 162.758 155.2 161.07 155.561C159.374 155.911 157.237 158.011 156.098 158.357C152.481 159.452 152.32 158.73 148.842 160.77C140.888 160.075 139.187 165.243 132.005 163.529C131.172 163.33 129.785 162.421 129.055 162.548C128.945 163.205 129.1 163.262 129.376 163.984C129.04 164.573 129.204 164.393 128.398 164.617C124.498 163.888 116.425 161.782 115.978 156.324C115.85 154.757 117.029 153.665 118.106 152.654C123.914 159.561 138.186 157.132 144.579 152.357C146.01 151.288 147.386 150.04 148.993 149.244L149.078 149.202Z" fill="#CA3633"/>
<path d="M126.906 60.2031C127.921 60.4269 129.848 63.6264 130.339 64.5853C133.567 70.8909 134.139 78.8889 128.21 84.1893C125.679 86.4784 122.328 87.643 118.923 87.4162C114.128 87.1218 111.187 84.5638 108.168 81.1546C107.844 80.7395 107.446 80.2804 107.267 79.78C107.143 79.4336 107.111 78.8612 107.284 78.5175C107.333 78.4203 111.735 74.5782 111.938 74.5063C112.976 75.3064 115.956 84.4898 118.097 82.572C121.431 79.5857 118.78 73.0065 116.7 69.8254C119.689 66.2967 123.755 63.8384 126.906 60.2031Z" fill="#FBFCF8"/>
<path d="M64.4574 160.086C64.7781 160.762 65.0653 161.475 65.6738 161.934C65.474 163.434 65.3721 164.262 65.3843 165.767C65.2021 165.512 65.016 165.299 64.8143 165.061L64.1049 165.425C64.2747 178.933 77.3921 193.061 90.3114 196.128C92.9855 196.762 97.0434 196.719 99.8927 196.795C95.1476 199.286 91.3237 199.527 86.0518 198.422C78.4948 196.838 69.7527 189.621 65.7598 183.185C62.3141 177.632 58.4406 167.86 59.9675 161.16C61.6536 160.632 62.6841 160.162 64.4574 160.086Z" fill="#F0BD46"/>
<path d="M64.4591 160.086C64.7798 160.762 65.067 161.475 65.6755 161.934C65.4757 163.434 65.3738 164.262 65.386 165.767C65.2038 165.512 65.0177 165.299 64.8159 165.061L64.1066 165.425C63.8904 164.431 64.3203 161.263 64.4591 160.086Z" fill="#24221D"/>
<path d="M102.335 120.598L102.525 120.599L102.628 120.859C101.285 123.219 100.395 125.555 99.1508 127.854C85.0647 130.622 71.4216 129.778 58.2209 123.839C57.0988 123.227 56.0255 122.534 55.1484 121.599L55.2217 121.184C56.2891 120.82 59.7165 122.018 60.9647 122.342C64.1628 123.172 66.5281 123.418 69.8018 123.645C77.2842 124.096 84.7934 123.739 92.1994 122.581C95.501 122.043 98.9835 121.215 102.335 120.598Z" fill="#CA3633"/>
<path d="M147.558 126.102C151.658 126.257 159.742 127.925 154.22 133.583C151.112 136.769 144.29 138.123 139.921 138.15C136.352 137.793 132.991 136.834 131.133 133.507C134.127 127.563 141.612 126.459 147.558 126.102Z" fill="#F0BD46"/>
<path d="M105.806 127.525C112.775 124.99 112.923 124.379 120.747 124.848C122.214 129.929 120.849 133.408 116.124 135.968C115.554 134.273 115.268 133.298 114.952 131.532C114.676 132.518 114.824 132.612 113.731 132.915C113.988 134.04 114.217 135.172 114.418 136.309C109.383 137.215 104.827 136.667 102.535 131.287C102.306 130.749 102.034 130.234 102.167 129.646L101.875 128.22C102.392 128.279 103.559 127.581 104.221 127.301L104.707 127.646L104.839 127.614C105.295 127.508 105.355 127.475 105.806 127.525Z" fill="#F0BD46"/>
<path d="M113.731 132.914C112.973 131.305 111.024 130.686 110.881 129.543C110.371 125.442 118.925 126.44 114.952 131.531C114.675 132.517 114.824 132.611 113.731 132.914Z" fill="#24221D"/>
<path d="M101.875 128.22C102.392 128.279 103.559 127.58 104.221 127.301L104.707 127.645L104.839 127.614C105.295 127.508 105.355 127.475 105.806 127.525C104.538 128.333 103.492 128.932 102.167 129.645L101.875 128.22Z" fill="#24221D"/>
<path d="M130.298 139.992C130.751 140.069 131.219 140.423 131.546 140.739C135.119 144.191 139.844 143.779 144.48 143.893C140.443 148.343 139.978 148.845 133.754 150.393C130.648 150.919 127.171 151.296 124.094 150.461C120.87 149.587 119.743 148.153 120.642 145.01C122.971 142.308 126.976 140.929 130.298 139.992Z" fill="#F0BD46"/>
<path d="M163.745 131.796C165.353 131.687 168.679 132.386 169.902 133.292C173.758 136.147 169.633 139.737 166.871 141.123C164.151 142.489 161.995 142.979 159.188 143.455C156.39 143.998 153.298 143.66 150.5 143.302C155.601 139.293 159.455 139.986 159.355 132.138C160.795 131.989 162.296 131.901 163.745 131.796Z" fill="#F0BD46"/>
<path d="M136.925 104.176L137.167 104.401C137.274 105.086 137.08 105.452 136.997 106.103C135.986 114.031 127.837 118.167 121.507 121.261C120.222 120.334 119.115 119.546 117.769 118.716C116.783 118.239 115.037 117.686 113.945 117.309C116.182 116.718 117.659 115.949 119.694 115.123C126.743 112.263 131.115 108.794 136.925 104.176Z" fill="#CA3633"/>
<path d="M172.115 139.941C172.369 140.067 172.448 140.167 172.661 140.354C172.706 141.052 172.672 141.059 172.331 141.688C168.9 148.005 155.729 150.509 149.884 147.317C148.992 146.619 147.833 145.524 148.278 144.304C148.877 143.864 150.373 144.199 151.116 144.323C156.527 145.223 162.76 144.757 167.72 142.297C169.236 141.545 170.446 140.431 172.115 139.941Z" fill="#F0BD46"/>
<path d="M107.441 118.73C107.432 118.412 107.457 118.392 107.555 118.099C108.596 117.678 109.714 118.1 110.789 118.393C111.943 118.436 113.119 118.92 114.014 119.639C117.378 120.462 117.693 120.975 119.897 123.713C114.164 123.661 109.268 123.882 104.221 127.298C103.559 127.577 102.392 128.276 101.875 128.217C102.153 124.002 104.04 121.932 107.762 120.152C107.678 119.498 107.646 119.357 107.441 118.73Z" fill="#F0BD46"/>
<path d="M107.447 118.73C107.438 118.412 107.463 118.392 107.561 118.099C108.602 117.678 109.72 118.1 110.795 118.393C111.95 118.436 113.125 118.92 114.02 119.639C111.752 119.707 110.014 119.894 107.768 120.152C107.684 119.498 107.652 119.357 107.447 118.73Z" fill="#24221D"/>
<path d="M107.447 118.73C107.438 118.412 107.463 118.392 107.561 118.099C108.602 117.678 109.72 118.1 110.795 118.393C109.807 118.779 108.507 118.79 107.447 118.73Z" fill="#F0BD46"/>
<path d="M145.173 146.188C145.518 146.286 145.358 146.201 145.626 146.51C146.229 153.899 127.82 157.699 122.696 153.754C121.856 152.801 121.463 152.215 120.766 151.164C122.513 151.235 124.677 151.652 126.497 151.715C134.715 151.997 138.869 151.115 145.173 146.188Z" fill="#F0BD46"/>
<path d="M144.946 162.201C147.38 161.969 148.64 162.861 150.404 164.26C149.109 164.67 142.739 165.996 143.264 167.742C145.115 168.46 149.567 165.613 150.665 165.738C151.069 166.21 151.084 166.871 151.187 167.518C151.114 167.598 151.041 167.676 150.966 167.753C146.513 172.414 139.424 174.213 139.573 165.421C139.764 165.13 139.965 164.847 140.177 164.57C141.551 162.806 142.896 162.465 144.946 162.201Z" fill="#F0BD46"/>
<path d="M156.533 134.248C157.025 134.243 156.802 134.18 157.222 134.458C157.868 136.39 153.409 139.789 151.765 140.23C146.669 141.597 138.969 143.698 134.056 140.972C134.013 140.917 133.97 140.862 133.927 140.806L133.858 140.709C133.26 139.88 133.026 138.975 132.703 138.004C137.126 138.792 139.731 139.781 144.375 139.061C149.677 138.24 152.113 136.959 156.533 134.248Z" fill="#F0BD46"/>
<path d="M81.6888 139.836C80.7083 138.553 79.6535 137.083 78.4593 136.147C72.8118 131.717 65.4001 132.063 58.6293 132.108C58.6293 132.108 58.2756 131.885 58.2266 131.854C58.2801 130.829 59.1552 130.85 60.0756 130.715C68.2876 129.509 80.9643 130.724 84.1522 140.158C84.3854 140.87 84.7431 142.252 84.1785 142.825C83.0844 142.535 82.2624 140.809 81.6888 139.836Z" fill="#FBFCF8"/>
<path d="M81.6875 139.836C82.879 140.061 82.3301 141.272 83.6934 140.726L84.1509 140.158C84.3841 140.87 84.7418 142.252 84.1772 142.825C83.0831 142.536 82.2611 140.809 81.6875 139.836Z" fill="#FBFCF8"/>
<path d="M163.091 157.082C169.07 158.562 169.349 164.518 163.323 165.989C162.485 166.194 159.166 166.229 158.543 165.784C158.252 165.209 158.486 164.478 158.612 163.811C160.513 163.494 163.092 163.155 164.084 161.412L163.882 160.865C162.134 160.429 158.946 162.443 157.595 161.201C157.377 158.574 161.224 157.544 163.091 157.082Z" fill="#F0BD46"/>
<path d="M122.234 165.215C128.43 165.71 131.9 165.845 138.173 165.876C138.206 166.629 138.295 167.359 138.028 168.061L137.554 168.264C137.012 168.375 136.469 168.477 135.924 168.572C132.452 169.17 123.017 170.079 122.234 165.215Z" fill="#F0BD46"/>
<path d="M107.042 90.352C107.981 90.2197 108.804 90.1184 109.456 90.8364C109.733 92.3846 106.289 96.2662 105.084 97.249C104.474 97.0101 103.705 96.5842 103.105 96.2721C101.08 95.0598 100.181 94.4719 98.5703 92.765C100.984 91.6561 104.427 90.7787 107.042 90.352Z" fill="#FBFCF8"/>
<path d="M156.274 56.1245C156.842 56.0583 157.026 56.0073 157.58 56.214C158.931 57.3061 159.274 60.1251 159.629 61.8508C158.637 63.2429 158.706 64.8197 157.098 65.3615C152.634 64.7626 152.107 58.363 156.274 56.1245Z" fill="#CA3633"/>
<path d="M167.218 55.4023L167.874 55.4972C169.622 57.566 170.451 63.7166 166.67 64.5653C165.138 64.0112 164.108 62.6662 163.968 61.0775C163.725 58.3043 164.211 55.8326 167.218 55.4023Z" fill="#CA3633"/>
<path d="M175.293 54.9336C179.531 55.281 178.414 61.86 175.747 64.1062C171.387 64.0243 172.867 56.6662 175.293 54.9336Z" fill="#CA3633"/>
<path d="M158.003 167.89C160.039 167.779 161.747 167.772 163.76 168.089C165.732 169.62 166.395 170.489 167.739 172.58C167.444 172.992 167.036 173.464 166.71 173.864C166.261 174.131 165.941 174.39 165.415 174.295C163.927 174.025 158.552 169.526 157.867 168.394L158.003 167.89Z" fill="#F0BD46"/>
<path d="M151.766 160.438C156.139 159.928 155.045 161.978 156.564 164.281C156.719 163.806 156.693 163.597 157.036 163.343C157.683 164.04 157.272 165.996 156.319 166.619C155.575 167.129 154.545 167.731 153.76 168.219C152.66 166.352 151.722 163.863 151.262 161.723C151.124 161.082 151.408 160.888 151.766 160.438Z" fill="#F0BD46"/>
<path d="M174.9 153.883C175.73 153.935 175.498 153.817 176.166 154.242C176.867 156.713 171.389 159.575 169.591 160.407C168.872 160.112 168.388 158.463 168.109 157.735C169.262 156.808 173.456 154.653 174.9 153.883Z" fill="#F0BD46"/>
<path d="M151.317 170.117L151.643 170.309C151.845 172.225 150.975 175.77 149.715 177.201C148.844 178.19 148.405 178.267 147.157 178.397C144.731 175.018 148.881 171.821 151.317 170.117Z" fill="#F0BD46"/>
<path d="M145.126 89.4297C146.744 90.3016 145.129 93.8058 144.568 95.103C143.402 97.801 141.737 100.049 139.486 101.928L139.099 101.992L139.031 101.713C139.796 100.042 140.902 98.6227 141.748 96.9619C142.845 94.8088 143.728 91.2721 145.126 89.4297Z" fill="#FBFCF8"/>
<path d="M64.1719 146.941C67.0481 147.347 68.9653 153.024 69.5219 155.483C68.693 155.545 68.2388 155.626 67.446 155.393C66.6536 154.583 66.9594 152.523 66.609 151.571C66.069 150.104 64.2141 148.655 64.1719 146.941Z" fill="#24221D"/>
<path d="M73.8687 140.996C76.3096 141.561 79.9242 147.227 79.4223 149.721C78.581 149.56 78.0697 148.512 77.8514 147.769C77.1856 145.502 73.7847 143.093 73.8687 140.996Z" fill="#24221D"/>
<path d="M145.742 78.9805L146.626 79.1836C147.681 80.2454 147.062 85.0697 146.546 86.4569C146.146 86.4239 146.134 86.4024 145.799 86.1613C145.183 84.5109 145.326 80.6686 145.742 78.9805Z" fill="#FBFCF8"/>
<path d="M94.8875 110.145C97.9492 109.841 97.8857 111.325 96.597 113.764C95.3327 113.913 94.2003 111.031 94.8875 110.145Z" fill="#24221D"/>
<path d="M89.4095 72.4074L92.6027 72.3281C91.9724 72.9661 91.2181 73.624 90.5499 74.2333C89.7903 74.7421 90.0066 74.7547 89.2034 74.7737C88.2671 74.0343 88.8555 73.1643 89.4095 72.4074Z" fill="#24221D"/>
<path d="M52.0759 59.4609C52.9005 59.6875 52.8355 59.5395 53.3469 60.082C53.5726 60.7349 53.338 61.4817 53.1938 62.176C52.3409 62.0875 52.2247 62.0349 51.8007 61.3559C51.7037 60.6269 51.882 60.169 52.0759 59.4609Z" fill="#24221D"/>
<path d="M99.8448 71.5312C100.628 71.7778 101.977 72.5975 102.344 73.3302C101.356 73.3921 100.666 73.556 99.8476 73.1135C99.5396 72.5498 99.7011 72.1523 99.8448 71.5312Z" fill="#24221D"/>
<path d="M69.3942 57.1992C69.8965 57.4972 70.282 57.8368 70.4263 58.4158C70.198 59.0231 70.2889 58.8347 69.5505 59.1919C68.8633 58.8985 68.8136 59.0033 68.4375 58.4814C68.5195 57.8935 68.9351 57.6277 69.3942 57.1992Z" fill="#24221D"/>
<path d="M96.1566 66.5938C96.7056 66.7567 96.7602 66.7932 97.0982 67.2549C97.2273 67.9423 97.0599 68.2112 96.7912 68.8583C96.281 68.7543 96.2222 68.7333 95.8773 68.3458C95.6614 67.7118 95.9234 67.2319 96.1566 66.5938Z" fill="#24221D"/>
<path d="M109.617 110.043C110.942 110.188 111.077 110.749 111.168 111.908C110.76 111.918 110.742 111.901 110.359 111.741C109.835 111.223 109.791 110.762 109.617 110.043Z" fill="#24221D"/>
<path d="M129.376 163.984C129.825 163.892 130.238 163.761 130.68 163.841L130.616 164.438L130.974 164.263C130.376 164.665 129.097 164.684 128.398 164.617C129.205 164.393 129.04 164.573 129.376 163.984Z" fill="#CA3633"/>
<path d="M29.4531 118.965L30.6591 119.035C31.5411 119.078 31.4586 118.924 31.9156 119.414C31.9319 119.712 31.9692 120.138 31.9635 120.427C30.9632 119.779 30.8377 119.785 29.608 119.589L29.4531 118.965Z" fill="#FBFCF8"/>
<path d="M26.5117 118.266C27.7432 118.678 28.1784 118.77 29.4515 118.962L29.6064 119.587C28.5631 119.343 27.5224 119.088 26.4844 118.822L26.5117 118.266Z" fill="#FBFCF8"/>
</svg>
